<svg width="24" height="24" viewBox="0 0 24 24" fill="none" xmlns="http://www.w3.org/2000/svg">
<path d="M18.6114 21.3782H5.5544C4.72539 21.3782 4 20.6528 4 19.8238V3.5544C4 2.72539 4.72539 2 5.5544 2H18.6114C19.4404 2 20.1658 2.72539 20.1658 3.5544V19.8238C20.1658 20.7564 19.4404 21.3782 18.6114 21.3782Z" stroke="#6E6BE8" stroke-width="2.07254" stroke-miterlimit="10"/>
<path d="M8.76674 9.87564C9.33905 9.87564 9.803 9.41168 9.803 8.83937C9.803 8.26705 9.33905 7.8031 8.76674 7.8031C8.19442 7.8031 7.73047 8.26705 7.73047 8.83937C7.73047 9.41168 8.19442 9.87564 8.76674 9.87564Z" fill="#6E6BE8"/>
<path d="M11.6685 8.83936H15.9172" stroke="#6E6BE8" stroke-width="2.07254" stroke-miterlimit="10"/>
<path d="M8.76674 15.5751C9.33905 15.5751 9.803 15.1111 9.803 14.5388C9.803 13.9665 9.33905 13.5026 8.76674 13.5026C8.19442 13.5026 7.73047 13.9665 7.73047 14.5388C7.73047 15.1111 8.19442 15.5751 8.76674 15.5751Z" fill="#6E6BE8"/>
<path d="M11.6685 14.5388H15.9172" stroke="#6E6BE8" stroke-width="2.07254" stroke-miterlimit="10"/>
</svg>
