<svg width="16" height="16" viewBox="0 0 16 16" fill="none" xmlns="http://www.w3.org/2000/svg">
<path d="M9.6 2C10.2 2 10.7 2.3 11 2.9C11.1 3 11.2 3.3 11.3 3.5L11.4 3.7L11.5 3.8L11.6 3.9L11.7 4C13.2 4 14.4 5.2 14.4 6.7V10.4C14.4 11.9 13.2 13.1 11.7 13.1H4.7C3.2 13.1 2 11.9 2 10.4V6.8C2 5.3 3.2 4.1 4.7 4.1C4.7 4.1 4.8 4.1 4.8 4V3.9C5 3.6 5.2 3.1 5.4 2.9C5.7 2.3 6.2 2 6.8 2H9.6Z" stroke="#6C6FDF" stroke-width="1.24"/>
<path d="M12.1 6.90007C12.4314 6.90007 12.7 6.63144 12.7 6.30007C12.7 5.9687 12.4314 5.70007 12.1 5.70007C11.7686 5.70007 11.5 5.9687 11.5 6.30007C11.5 6.63144 11.7686 6.90007 12.1 6.90007Z" fill="#F3A8A2"/>
<path d="M8.19998 10.2C9.35977 10.2 10.3 9.2598 10.3 8.1C10.3 6.9402 9.35977 6 8.19998 6C7.04018 6 6.09998 6.9402 6.09998 8.1C6.09998 9.2598 7.04018 10.2 8.19998 10.2Z" stroke="#F3A8A2" stroke-width="1.24"/>
</svg>
