<svg width="32" height="32" viewBox="0 0 32 32" fill="none" xmlns="http://www.w3.org/2000/svg">
<path d="M4.52441 17.2435L2.80522 14.2349C2.37542 13.5473 2.6333 12.6017 3.32098 12.2579C4.00866 11.8281 4.86825 12.0859 5.29805 12.7736L7.79089 17.1576" stroke="#F7658B" stroke-width="1.7192" stroke-miterlimit="10"/>
<path d="M15.3552 16.5559C15.3552 14.063 17.4183 12 19.9111 12C22.4039 12 24.467 14.063 24.467 16.5559" stroke="#F7658B" stroke-width="1.7192" stroke-miterlimit="10"/>
<path d="M19.9111 17.1576V28.7622" stroke="#F3A8A2" stroke-width="1.7192" stroke-miterlimit="10"/>
<path d="M24.6389 17.1576V28.7622" stroke="#F3A8A2" stroke-width="1.7192" stroke-miterlimit="10"/>
<path d="M29.2808 23.0031H17.0745" stroke="#F3A8A2" stroke-width="1.7192" stroke-miterlimit="10"/>
<path d="M15.0114 17.1576H29.9685L28.5071 28.7622H13.2922" stroke="#F7658B" stroke-width="1.7192" stroke-miterlimit="10"/>
<path d="M10.7135 26.6132H8.82237C4.95418 26.6132 1.85962 23.5186 1.85962 19.6504V17.2435H17.6762V19.7364C17.6762 23.5186 14.5817 26.6132 10.7135 26.6132Z" stroke="#6E6BE8" stroke-width="1.7192" stroke-miterlimit="10"/>
<path d="M14.2378 25.7537V27.9886C14.2378 28.5044 13.808 28.9342 13.2922 28.9342H6.24353C5.72777 28.9342 5.29797 28.5044 5.29797 27.9886V25.7537" stroke="#6E6BE8" stroke-width="1.7192" stroke-miterlimit="10"/>
</svg>
