<svg width="16" height="16" viewBox="0 0 16 16" fill="none" xmlns="http://www.w3.org/2000/svg">
<path d="M4.49426 3.27902C4.49426 2.34384 5.2424 1.5957 6.17758 1.5957C7.11276 1.5957 7.8609 2.34384 7.8609 3.27902" stroke="#F3A8A2" stroke-width="1.2469" stroke-miterlimit="10"/>
<path d="M7.86084 3.27902C7.86084 2.34384 8.60898 1.5957 9.54416 1.5957C10.4793 1.5957 11.2275 2.34384 11.2275 3.27902" stroke="#F3A8A2" stroke-width="1.2469" stroke-miterlimit="10"/>
<path d="M7.86084 3.77783V14.8129" stroke="#F3A8A2" stroke-width="1.2469" stroke-miterlimit="10"/>
<path d="M12.5368 14.9999H3.24738C2.43689 14.9999 1.7511 14.3142 1.7511 13.5037V5.27411C1.7511 4.46363 2.43689 3.77783 3.24738 3.77783H12.5368C13.3473 3.77783 14.0331 4.46363 14.0331 5.27411V13.5037C14.0331 14.3142 13.3473 14.9999 12.5368 14.9999Z" stroke="#6E6BE8" stroke-width="1.2469" stroke-miterlimit="10"/>
<path d="M1.7511 7.83032H13.9707" stroke="#6E6BE8" stroke-width="1.2469" stroke-miterlimit="10"/>
</svg>
