<svg width="24" height="23" viewBox="0 0 24 23" fill="none" xmlns="http://www.w3.org/2000/svg">
<path d="M13.0136 1.92912C12.4401 1.40343 11.5599 1.40343 10.9864 1.92912L2.48641 9.72079C2.17647 10.0049 2 10.4061 2 10.8265V19.6042C2 20.4326 2.67157 21.1042 3.5 21.1042H7.27083C8.09926 21.1042 8.77083 20.4326 8.77083 19.6042V14.3333C8.77083 12.5625 10.2292 11.1042 12 11.1042C13.7708 11.1042 15.2292 12.5625 15.2292 14.3333V19.6042C15.2292 20.4326 15.9007 21.1042 16.7292 21.1042H20.5C21.3284 21.1042 22 20.4326 22 19.6042V10.8265C22 10.4061 21.8235 10.0049 21.5136 9.72079L13.0136 1.92912Z" stroke="#6E6BE8" stroke-width="2.08333" stroke-miterlimit="10"/>
</svg>
