<svg width="32" height="32" viewBox="0 0 32 32" fill="none" xmlns="http://www.w3.org/2000/svg">
<path d="M19.535 26.2345H13.1564V17.9012C13.1564 16.1522 14.5967 14.7119 16.3457 14.7119C18.0946 14.7119 19.535 16.1522 19.535 17.9012V26.2345Z" stroke="#F7658B" stroke-width="2.05761" stroke-miterlimit="10"/>
<path d="M7.08645 12.963V26.2346H16.3457H25.605V12.963L28.0741 14.6091L17.5803 7.51031C16.7572 6.99591 15.8313 6.99591 15.0083 7.51031L4.61731 14.6091" stroke="#6E6BE8" stroke-width="2.05761" stroke-miterlimit="10"/>
<path d="M26.428 30.144H6.57202C5.74897 30.144 5.02881 29.4238 5.02881 28.6008V27.7777C5.02881 26.9547 5.74897 26.2345 6.57202 26.2345H26.428C27.251 26.2345 27.9712 26.9547 27.9712 27.7777V28.7036C27.9712 29.5267 27.3539 30.144 26.428 30.144Z" stroke="#6E6BE8" stroke-width="2.05761" stroke-miterlimit="10"/>
<path d="M5.02881 5.34973L8.21811 7.61311" stroke="#F3A8A2" stroke-width="2.05761" stroke-miterlimit="10"/>
<path d="M27.6625 5.34973L24.3704 7.61311" stroke="#F3A8A2" stroke-width="2.05761" stroke-miterlimit="10"/>
<path d="M16.5514 0V2.98354" stroke="#F3A8A2" stroke-width="2.05761" stroke-miterlimit="10"/>
</svg>
