<svg width="32" height="32" viewBox="0 0 32 32" fill="none" xmlns="http://www.w3.org/2000/svg">
<path d="M18.3062 29.9161H5.26125C3.41321 29.9161 2 28.3942 2 26.6548V8.17445C2 6.32641 3.52191 4.91321 5.26125 4.91321H18.3062C20.1543 4.91321 21.5675 6.43512 21.5675 8.17445V26.6548C21.5675 28.3942 20.1543 29.9161 18.3062 29.9161Z" stroke="#6E6BE8" stroke-width="2.17416" stroke-miterlimit="10"/>
<path d="M2 10.7836H21.5675" stroke="#6E6BE8" stroke-width="2.17416" stroke-miterlimit="10"/>
<path d="M11.7837 24.698C14.4854 24.698 16.6756 22.5079 16.6756 19.8062C16.6756 17.1045 14.4854 14.9143 11.7837 14.9143C9.08201 14.9143 6.89185 17.1045 6.89185 19.8062C6.89185 22.5079 9.08201 24.698 11.7837 24.698Z" stroke="#F7658B" stroke-width="2.17416" stroke-miterlimit="10"/>
<path d="M13.6318 8.82661C14.1121 8.82661 14.5014 8.43725 14.5014 7.95695C14.5014 7.47664 14.1121 7.08728 13.6318 7.08728C13.1514 7.08728 12.7621 7.47664 12.7621 7.95695C12.7621 8.43725 13.1514 8.82661 13.6318 8.82661Z" fill="#F3A8A2"/>
<path d="M17.3278 8.82661C17.8081 8.82661 18.1975 8.43725 18.1975 7.95695C18.1975 7.47664 17.8081 7.08728 17.3278 7.08728C16.8475 7.08728 16.4581 7.47664 16.4581 7.95695C16.4581 8.43725 16.8475 8.82661 17.3278 8.82661Z" fill="#F3A8A2"/>
<path d="M9.28333 4.91321V10.7834" stroke="#6E6BE8" stroke-width="2.17416" stroke-miterlimit="10"/>
<path d="M29.5031 25.5677H21.5674V21.4368H29.5031C30.264 21.4368 30.8076 21.9803 30.8076 22.7413V24.2632C30.9163 25.0241 30.264 25.5677 29.5031 25.5677Z" stroke="#6E6BE8" stroke-width="2.17416" stroke-miterlimit="10"/>
<path d="M21.5675 25.5677H29.5032C30.2641 25.5677 30.8077 26.1113 30.8077 26.8722V28.3942C30.8077 29.1551 30.2641 29.6987 29.5032 29.6987H19.1759" stroke="#6E6BE8" stroke-width="2.17416" stroke-miterlimit="10"/>
<path d="M29.5031 21.4368H21.5674V17.3059H29.5031C30.264 17.3059 30.8076 17.8494 30.8076 18.6104V20.1323C30.9163 20.8933 30.264 21.4368 29.5031 21.4368Z" stroke="#6E6BE8" stroke-width="2.17416" stroke-miterlimit="10"/>
</svg>
