<svg width="16" height="16" viewBox="0 0 16 16" fill="none" xmlns="http://www.w3.org/2000/svg">
<path d="M7.68314 8.34651C8.60179 8.34651 9.34651 7.60179 9.34651 6.68314C9.34651 5.76449 8.60179 5.01978 7.68314 5.01978C6.76449 5.01978 6.01978 5.76449 6.01978 6.68314C6.01978 7.60179 6.76449 8.34651 7.68314 8.34651Z" stroke="#F3A8A2" stroke-width="1.38614" stroke-miterlimit="10"/>
<path d="M12.6039 6.68309C12.6039 3.91081 10.3861 1.69299 7.61385 1.69299C4.84157 1.69299 2.69305 3.91081 2.69305 6.68309C2.69305 8.27715 3.52474 9.52468 4.56434 10.5643C5.46533 11.4653 7.68315 13.9603 7.68315 13.9603C7.68315 13.9603 9.83167 11.6039 10.802 10.5643C11.7723 9.52468 12.6039 8.20784 12.6039 6.68309Z" stroke="#6E6BE8" stroke-width="1.38614" stroke-miterlimit="10"/>
</svg>
