<svg width="16" height="16" viewBox="0 0 16 16" fill="none" xmlns="http://www.w3.org/2000/svg">
<path d="M8.0784 7.18817C9.78721 7.18817 11.1725 5.8029 11.1725 4.09408C11.1725 2.38527 9.78721 1 8.0784 1C6.36958 1 4.98431 2.38527 4.98431 4.09408C4.98431 5.8029 6.36958 7.18817 8.0784 7.18817Z" stroke="#F3A8A2" stroke-width="1.23763" stroke-miterlimit="10"/>
<path d="M8.07839 13.4999C11.42 13.4999 13.1527 12.7574 13.1527 12.7574C13.1527 12.7574 13.2765 11.1484 12.1626 10.4059C11.0487 9.66328 8.07839 9.29199 8.07839 9.29199C8.07839 9.29199 5.10807 9.53952 3.9942 10.4059C2.88033 11.2722 3.00409 12.7574 3.00409 12.7574C3.00409 12.7574 4.61302 13.4999 8.07839 13.4999Z" stroke="#6E6BE8" stroke-width="1.23763" stroke-miterlimit="10"/>
</svg>
