<svg width="32" height="32" viewBox="0 0 32 32" fill="none" xmlns="http://www.w3.org/2000/svg">
<path d="M22.1143 15.4285H9.88574C9.88574 11.9999 12.6286 9.25708 16.0572 9.25708C19.3715 9.25708 22.1143 11.9999 22.1143 15.4285Z" stroke="#6E6BE8" stroke-width="2.28571" stroke-miterlimit="10"/>
<path d="M11.7143 21.4857C12.4086 21.4857 12.9714 20.9229 12.9714 20.2286C12.9714 19.5343 12.4086 18.9714 11.7143 18.9714C11.02 18.9714 10.4572 19.5343 10.4572 20.2286C10.4572 20.9229 11.02 21.4857 11.7143 21.4857Z" fill="#F7658B"/>
<path d="M19.7143 25.9429C20.4086 25.9429 20.9714 25.38 20.9714 24.6857C20.9714 23.9914 20.4086 23.4286 19.7143 23.4286C19.02 23.4286 18.4572 23.9914 18.4572 24.6857C18.4572 25.38 19.02 25.9429 19.7143 25.9429Z" fill="#F7658B"/>
<path d="M20.6286 21.1429C21.1336 21.1429 21.5429 20.7336 21.5429 20.2286C21.5429 19.7237 21.1336 19.3143 20.6286 19.3143C20.1237 19.3143 19.7144 19.7237 19.7144 20.2286C19.7144 20.7336 20.1237 21.1429 20.6286 21.1429Z" fill="#F3A8A2"/>
<path d="M11.7143 25.6001C12.2193 25.6001 12.6286 25.1907 12.6286 24.6858C12.6286 24.1808 12.2193 23.7715 11.7143 23.7715C11.2094 23.7715 10.8 24.1808 10.8 24.6858C10.8 25.1907 11.2094 25.6001 11.7143 25.6001Z" fill="#F3A8A2"/>
<path d="M22.1143 15.3143C23.7143 16.9143 24.7428 19.2 24.7428 21.6C24.7428 26.5143 20.7428 30.4 15.9428 30.4C11.1428 30.4 7.14282 26.5143 7.14282 21.6C7.14282 19.2 8.17139 16.9143 9.77139 15.3143" stroke="#6E6BE8" stroke-width="2.28571" stroke-miterlimit="10"/>
<path d="M15.9429 15.4286V30.4" stroke="#6E6BE8" stroke-width="2.28571" stroke-miterlimit="10"/>
<path d="M15.9429 9.25711C15.9429 9.25711 15.1429 5.14282 11.7144 5.14282" stroke="#6E6BE8" stroke-width="2.28571" stroke-miterlimit="10"/>
<path d="M16.2856 9.25711C16.2856 9.25711 17.0856 5.14282 20.5142 5.14282" stroke="#6E6BE8" stroke-width="2.28571" stroke-miterlimit="10"/>
</svg>
