<svg width="16" height="16" viewBox="0 0 16 16" fill="none" xmlns="http://www.w3.org/2000/svg">
<path d="M7.9064 14.1536C8.04218 14.1536 8.11007 14.1536 8.24585 14.1536C8.92475 13.95 11.3688 12.9995 12.7945 9.94447C13.8128 7.83989 14.0844 5.26008 14.1523 4.10595C14.1523 3.76651 13.9486 3.49495 13.6091 3.49495C12.9302 3.42706 11.7761 3.29128 10.5541 2.68027C9.67154 2.20504 9.06053 1.66192 8.65319 1.25459C8.31374 0.915138 7.77063 0.915138 7.49907 1.25459C7.09173 1.59403 6.48072 2.13715 5.59815 2.61238C4.37614 3.29128 3.22201 3.42706 2.54312 3.49495C2.20367 3.49495 2 3.76651 2 4.10595C2.06789 5.26008 2.40734 7.83989 3.35779 9.94447C4.78348 12.9995 7.2954 13.95 7.9064 14.1536Z" stroke="#6E6BE8" stroke-width="1.35779" stroke-miterlimit="10"/>
<path d="M11.3009 5.73535L7.567 8.85828L5.39453 7.02526" stroke="#F3A8A2" stroke-width="1.35779" stroke-miterlimit="10"/>
</svg>
