<svg width="32" height="32" viewBox="0 0 32 32" fill="none" xmlns="http://www.w3.org/2000/svg">
<path d="M13.315 18.545L4.80499 10.15" stroke="#F3A8A2" stroke-width="2.3" stroke-miterlimit="10"/>
<path d="M21.71 22.34L25.505 26.135C26.08 26.71 26.08 27.745 25.505 28.435L23.55 30.39C22.975 30.965 21.94 30.965 21.25 30.39L15.5 24.64" stroke="#F7658B" stroke-width="2.3" stroke-miterlimit="10"/>
<path d="M25.275 13.715L22.86 16.13C22.055 16.935 20.675 16.935 19.87 16.13C19.065 15.325 19.065 13.945 19.87 13.14L22.285 10.725C19.985 9.57499 16.995 10.035 15.155 11.875C13.43 13.715 12.97 16.13 13.545 18.315L6.3 25.56C5.15 26.71 5.15 28.55 6.3 29.7C7.45 30.85 9.29 30.85 10.44 29.7L17.685 22.455C19.87 23.145 22.285 22.57 24.01 20.96C25.965 19.005 26.425 16.13 25.275 13.715Z" stroke="#6E6BE8" stroke-width="2.3" stroke-miterlimit="10"/>
</svg>
