<svg width="16" height="16" viewBox="0 0 16 16" fill="none" xmlns="http://www.w3.org/2000/svg">
<g clip-path="url(#clip0_144_1665)">
<path d="M8.34027 0.631592C8.88357 0.631592 9.37549 0.933329 9.64714 1.37875C9.77929 1.59428 9.8674 1.86009 9.84537 2.14028C9.83069 2.3558 9.89677 2.57133 10.0142 2.77249C10.3887 3.38314 11.2183 3.61304 11.8644 3.2682C12.5913 2.85151 13.509 3.10296 13.9275 3.8142L14.4194 4.66193C14.8452 5.37317 14.6103 6.28557 13.8761 6.69507C13.252 7.06146 13.0318 7.87328 13.4062 8.49112C13.5237 8.68509 13.6558 8.85033 13.8614 8.95091C14.1184 9.08741 14.3166 9.30293 14.4561 9.51846C14.7278 9.96388 14.7057 10.5099 14.4414 10.9912L13.9275 11.8533C13.6558 12.3131 13.1493 12.6005 12.628 12.6005C12.371 12.6005 12.0847 12.5286 11.8497 12.385C11.6588 12.2628 11.4386 12.2197 11.2036 12.2197C10.4768 12.2197 9.8674 12.816 9.84537 13.5273C9.84537 14.3534 9.16991 15 8.32559 15H7.32708C6.47541 15 5.79995 14.3534 5.79995 13.5273C5.78527 12.816 5.17589 12.2197 4.44903 12.2197C4.20675 12.2197 3.98649 12.2628 3.80294 12.385C3.568 12.5286 3.27432 12.6005 3.02469 12.6005C2.49607 12.6005 1.98948 12.3131 1.71783 11.8533L1.21123 10.9912C0.939578 10.5242 0.924894 9.96388 1.19655 9.51846C1.31402 9.30293 1.53428 9.08741 1.7839 8.95091C1.98948 8.85033 2.12163 8.68509 2.24645 8.49112C2.61354 7.87328 2.39329 7.06146 1.76922 6.69507C1.04237 6.28557 0.807422 5.37317 1.22591 4.66193L1.71783 3.8142C2.14366 3.10296 3.05406 2.85151 3.78826 3.2682C4.42701 3.61304 5.25665 3.38314 5.63109 2.77249C5.74856 2.57133 5.81464 2.3558 5.79995 2.14028C5.78527 1.86009 5.86603 1.59428 6.00553 1.37875C6.27718 0.933329 6.76909 0.64596 7.30505 0.631592H8.34027Z" stroke="#6E6BE8" stroke-width="1.37"/>
<path d="M7.78085 10.4522C9.25612 10.4522 10.4521 9.25625 10.4521 7.78097C10.4521 6.30569 9.25612 5.10974 7.78085 5.10974C6.30557 5.10974 5.10962 6.30569 5.10962 7.78097C5.10962 9.25625 6.30557 10.4522 7.78085 10.4522Z" stroke="#F3A8A2" stroke-width="1.36986" stroke-miterlimit="10"/>
</g>
<defs>
<clipPath id="clip0_144_1665">
<rect width="16" height="16" fill="white"/>
</clipPath>
</defs>
</svg>
