<svg width="54" height="37" viewBox="0 0 54 37" fill="none" xmlns="http://www.w3.org/2000/svg">
<g clip-path="url(#clip0_2_2240)">
<path d="M35.8728 36.9078H18.1635C17.1784 36.9078 16.2336 36.5186 15.5371 35.8259C14.8405 35.1331 14.4492 34.1935 14.4492 33.2137V22.2634C14.4492 21.8261 14.6239 21.4066 14.9348 21.0973C15.2458 20.788 15.6676 20.6143 16.1073 20.6143C16.5471 20.6143 16.9689 20.788 17.2798 21.0973C17.5908 21.4066 17.7655 21.8261 17.7655 22.2634V33.2137C17.7655 33.3187 17.8074 33.4194 17.8821 33.4936C17.9567 33.5678 18.0579 33.6095 18.1635 33.6095H35.9722C36.0778 33.6095 36.179 33.5678 36.2536 33.4936C36.3283 33.4194 36.3702 33.3187 36.3702 33.2137V22.2634C36.3702 21.8261 36.5449 21.4066 36.8559 21.0973C37.1668 20.788 37.5886 20.6143 38.0284 20.6143C38.4682 20.6143 38.8899 20.788 39.2009 21.0973C39.5119 21.4066 39.6866 21.8261 39.6866 22.2634V33.2137C39.6867 33.7073 39.5875 34.1959 39.3946 34.6506C39.2018 35.1054 38.9192 35.5171 38.5637 35.8615C38.2082 36.2058 37.7869 36.4758 37.3247 36.6556C36.8625 36.8353 36.3688 36.9211 35.8728 36.9078Z" fill="#583EF2"/>
<path d="M26.8523 20.2185H27.0845C28.1223 20.2185 29.1177 20.6286 29.8516 21.3584C30.5855 22.0883 30.9977 23.0783 30.9977 24.1105V34.1703H22.939V24.1105C22.939 23.0783 23.3513 22.0883 24.0852 21.3584C24.8191 20.6286 25.8144 20.2185 26.8523 20.2185Z" fill="#583EF2"/>
<path d="M15.0461 0.230948C15.0049 0.162646 14.9465 0.106127 14.8768 0.0668897C14.807 0.027652 14.7283 0.00703049 14.6482 0.00703049C14.568 0.00703049 14.4893 0.027652 14.4195 0.0668897C14.3498 0.106127 14.2915 0.162646 14.2502 0.230948L13.9849 0.758674C13.7654 1.2367 13.4075 1.63868 12.9568 1.91307L12.0614 2.50677C11.9997 2.54539 11.9489 2.59892 11.9137 2.66237C11.8785 2.72582 11.86 2.79711 11.86 2.86958C11.86 2.94205 11.8785 3.01334 11.9137 3.07678C11.9489 3.14023 11.9997 3.19377 12.0614 3.23239L12.9568 3.82608C13.4075 4.10048 13.7654 4.50245 13.9849 4.98048L14.2502 5.47522C14.2829 5.55336 14.3382 5.62012 14.409 5.66707C14.4798 5.71403 14.563 5.73909 14.6482 5.73909C14.7333 5.73909 14.8165 5.71403 14.8873 5.66707C14.9581 5.62012 15.0134 5.55336 15.0461 5.47522L15.2783 4.98048C15.5244 4.52029 15.8767 4.12468 16.3063 3.82608L17.2017 3.29835C17.2634 3.25973 17.3142 3.2062 17.3494 3.14275C17.3846 3.0793 17.4031 3.00801 17.4031 2.93554C17.4031 2.86307 17.3846 2.79178 17.3494 2.72834C17.3142 2.66489 17.2634 2.61135 17.2017 2.57273L16.3063 1.91307C15.8767 1.61447 15.5244 1.21886 15.2783 0.758674L15.0461 0.230948Z" fill="#583EF2"/>
<path d="M41.9417 5.93696C41.9126 5.8738 41.8659 5.82028 41.8071 5.78276C41.7483 5.74524 41.6799 5.72529 41.6101 5.72529C41.5402 5.72529 41.4718 5.74524 41.413 5.78276C41.3543 5.82028 41.3075 5.8738 41.2784 5.93696L41.0794 6.36573C40.8666 6.74397 40.5721 7.07063 40.2172 7.32224L39.4876 7.784C39.4326 7.81596 39.3869 7.8617 39.3551 7.91668C39.3234 7.97165 39.3067 8.03394 39.3067 8.09734C39.3067 8.16073 39.3234 8.22302 39.3551 8.27799C39.3869 8.33297 39.4326 8.37872 39.4876 8.41067L40.2172 8.87243C40.5795 9.11575 40.8757 9.44432 41.0794 9.82894L41.2784 10.2577C41.3075 10.3209 41.3543 10.3744 41.413 10.4119C41.4718 10.4494 41.5402 10.4694 41.6101 10.4694C41.6799 10.4694 41.7483 10.4494 41.8071 10.4119C41.8659 10.3744 41.9126 10.3209 41.9417 10.2577L42.1407 9.8949C42.3223 9.50563 42.6094 9.17441 42.9698 8.9384L43.7325 8.47664C43.7807 8.43966 43.8197 8.39219 43.8466 8.33787C43.8734 8.28355 43.8874 8.22383 43.8874 8.1633C43.8874 8.10278 43.8734 8.04306 43.8466 7.98874C43.8197 7.93442 43.7807 7.88694 43.7325 7.84996L42.9698 7.3882C42.6159 7.14496 42.3304 6.81568 42.1407 6.4317L41.9417 5.93696Z" fill="#583EF2"/>
<path d="M8.21443 19.0312C7.85816 19.0168 7.51325 18.9025 7.21953 18.7014L1.08429 14.1168C0.737581 13.8495 0.511502 13.4564 0.455561 13.0237C0.399619 12.591 0.518374 12.1538 0.785821 11.808C1.05488 11.4653 1.44693 11.2395 1.87974 11.178C2.31254 11.1165 2.75247 11.2241 3.10726 11.4782L9.14301 16.0628C9.48972 16.3301 9.7158 16.7231 9.77174 17.1559C9.82768 17.5886 9.70893 18.0257 9.44148 18.3716C9.29588 18.562 9.11111 18.7193 8.89952 18.8331C8.68792 18.9468 8.45437 19.0144 8.21443 19.0312Z" fill="#F3A8A2"/>
<path d="M40.7478 19.0312C40.3567 19.0363 39.9779 18.8951 39.6866 18.6354L28.1125 8.77348C27.8304 8.53419 27.4718 8.40274 27.1011 8.40274C26.7303 8.40274 26.3717 8.53419 26.0896 8.77348L14.3829 18.6683C14.0486 18.9526 13.6145 19.0932 13.1761 19.0592C12.7376 19.0252 12.3307 18.8193 12.0448 18.4869C11.759 18.1545 11.6176 17.7228 11.6518 17.2867C11.686 16.8506 11.893 16.4459 12.2272 16.1616L23.9339 6.26679C24.8167 5.51649 25.9398 5.10424 27.1011 5.10424C28.2623 5.10424 29.3854 5.51649 30.2682 6.26679L41.9417 16.1616C42.1983 16.3798 42.3818 16.6707 42.4677 16.9954C42.5536 17.3201 42.5378 17.6631 42.4225 17.9787C42.3071 18.2942 42.0976 18.5672 41.8221 18.7612C41.5465 18.9551 41.218 19.0608 40.8805 19.0641L40.7478 19.0312Z" fill="#F7658B"/>
<path d="M45.7887 19.0312C45.4406 19.0312 45.1014 18.9223 44.8191 18.72C44.5368 18.5176 44.3256 18.232 44.2156 17.9036C44.1055 17.5752 44.1021 17.2208 44.2059 16.8904C44.3097 16.56 44.5153 16.2705 44.7938 16.0628L50.8295 11.4782C51.1843 11.2241 51.6242 11.1165 52.057 11.178C52.4898 11.2395 52.8819 11.4653 53.151 11.808C53.4184 12.1538 53.5372 12.591 53.4812 13.0237C53.4253 13.4564 53.1992 13.8495 52.8525 14.1168L46.8167 18.7014C46.5112 18.9035 46.1554 19.0177 45.7887 19.0312Z" fill="#F3A8A2"/>
</g>
<defs>
<clipPath id="clip0_2_2240">
<rect width="54" height="37" fill="white"/>
</clipPath>
</defs>
</svg>
