<svg width="16" height="16" viewBox="0 0 16 16" fill="none" xmlns="http://www.w3.org/2000/svg">
<g clip-path="url(#clip0_144_1690)">
<path d="M12.7509 11.6666C12.7509 12.7701 11.8314 13.6896 10.7279 13.6896H9.01147" stroke="#F3A8A2" stroke-width="1.22605" stroke-miterlimit="10"/>
<path d="M8.52102 15.0995C9.26587 15.0995 9.86968 14.4957 9.86968 13.7509C9.86968 13.006 9.26587 12.4022 8.52102 12.4022C7.77618 12.4022 7.17236 13.006 7.17236 13.7509C7.17236 14.4957 7.77618 15.0995 8.52102 15.0995Z" fill="#F3A8A2"/>
<path d="M3.24905 5.90423C1.77779 5.90423 0.613037 7.06898 0.613037 8.54024C0.613037 10.0115 1.77779 11.1763 3.24905 11.1763V6.39465C3.24905 3.75863 5.39465 1.61304 8.03066 1.61304C10.6667 1.61304 12.8123 3.75863 12.8123 6.39465V11.1763C14.2835 11.1763 15.4483 10.0115 15.4483 8.54024C15.4483 7.06898 14.2222 5.90423 12.751 5.90423" stroke="#6E6BE8" stroke-width="1.22605" stroke-miterlimit="10"/>
</g>
<defs>
<clipPath id="clip0_144_1690">
<rect width="16" height="16" fill="white"/>
</clipPath>
</defs>
</svg>
